<mxfile host="app.diagrams.net" modified="2020-08-23T23:11:16.606Z" agent="5.0 (X11)" etag="SbyBfX-GXfRt17YEmWEP" version="13.6.4" type="github" pages="2">
  <diagram id="kgpKYQtTHZ0yAKxKKP6v" name="Page-1">
    <mxGraphModel dx="-27" dy="938" grid="1" gridSize="10" guides="1" tooltips="1" connect="1" arrows="1" fold="1" page="1" pageScale="1" pageWidth="850" pageHeight="1100" math="0" shadow="0">
      <root>
        <mxCell id="0" />
        <mxCell id="1" parent="0" />
        <mxCell id="JGoEOjAj2-sULiIREY7c-90" value="&lt;div&gt;&lt;font style=&quot;font-size: 11px&quot;&gt;Checar se o &lt;br&gt;&lt;/font&gt;&lt;/div&gt;&lt;div&gt;&lt;font style=&quot;font-size: 11px&quot;&gt;indivíduo se recusou a &lt;br&gt;&lt;/font&gt;&lt;/div&gt;&lt;div&gt;&lt;font style=&quot;font-size: 11px&quot;&gt;se identificar por &lt;br&gt;&lt;/font&gt;&lt;/div&gt;&lt;div&gt;&lt;font style=&quot;font-size: 11px&quot;&gt;meio de um timer&lt;/font&gt;&lt;/div&gt;" style="rhombus;whiteSpace=wrap;html=1;" vertex="1" parent="1">
          <mxGeometry x="2000.77" y="720" width="187.5" height="107" as="geometry" />
        </mxCell>
        <mxCell id="JGoEOjAj2-sULiIREY7c-91" value="&lt;font style=&quot;font-size: 11px&quot;&gt;Sensor libera a abertura da porta e alerta o mecanismo de abertura automatizada&lt;/font&gt;" style="rounded=0;whiteSpace=wrap;html=1;" vertex="1" parent="1">
          <mxGeometry x="2371.5" y="491" width="95" height="91.75" as="geometry" />
        </mxCell>
        <mxCell id="JGoEOjAj2-sULiIREY7c-92" value="&lt;font style=&quot;font-size: 11px&quot;&gt;Sensor reporta a aproximação de indivíduo não autorizado mantém o fechamento&lt;br&gt;&lt;/font&gt;" style="rounded=0;whiteSpace=wrap;html=1;" vertex="1" parent="1">
          <mxGeometry x="2371.5" y="601" width="95" height="89.37" as="geometry" />
        </mxCell>
        <mxCell id="JGoEOjAj2-sULiIREY7c-93" value="&lt;font style=&quot;font-size: 11px&quot;&gt;Sensor alerta o mecanismo de contato às autoridades e mantém o fechamento&lt;/font&gt;" style="rounded=0;whiteSpace=wrap;html=1;" vertex="1" parent="1">
          <mxGeometry x="2371.5" y="711" width="95" height="91.75" as="geometry" />
        </mxCell>
        <mxCell id="JGoEOjAj2-sULiIREY7c-94" value="Interface com operador" style="swimlane;connectable=0;startSize=40;html=1;whiteSpace=wrap;collapsible=0;recursiveResize=0;expand=0;" vertex="1" parent="1">
          <mxGeometry x="1751" y="220" width="748" height="170" as="geometry" />
        </mxCell>
        <mxCell id="JGoEOjAj2-sULiIREY7c-95" value="&lt;font style=&quot;font-size: 11px&quot;&gt;Requisitar confirmação de credenciais ao indivíduo&lt;/font&gt;" style="rounded=0;whiteSpace=wrap;html=1;" vertex="1" parent="JGoEOjAj2-sULiIREY7c-94">
          <mxGeometry x="300" y="70" width="90" height="60" as="geometry" />
        </mxCell>
        <mxCell id="JGoEOjAj2-sULiIREY7c-96" value="&lt;div&gt;Transeunte&lt;/div&gt;&lt;div&gt; pode efetuar&lt;/div&gt;&lt;div&gt; sua entrada&lt;/div&gt;" style="rounded=0;whiteSpace=wrap;html=1;" vertex="1" parent="JGoEOjAj2-sULiIREY7c-94">
          <mxGeometry x="620.5" y="78.25" width="95" height="51.75" as="geometry" />
        </mxCell>
        <mxCell id="JGoEOjAj2-sULiIREY7c-97" value="Interface de entrada" style="swimlane;connectable=0;startSize=40;html=1;whiteSpace=wrap;collapsible=0;recursiveResize=0;expand=0;" vertex="1" parent="1">
          <mxGeometry x="1751" y="390" width="160" height="490" as="geometry" />
        </mxCell>
        <mxCell id="JGoEOjAj2-sULiIREY7c-98" style="edgeStyle=orthogonalEdgeStyle;rounded=0;orthogonalLoop=1;jettySize=auto;html=1;exitX=0.5;exitY=0;exitDx=0;exitDy=0;entryX=0.5;entryY=1;entryDx=0;entryDy=0;" edge="1" parent="JGoEOjAj2-sULiIREY7c-97" source="JGoEOjAj2-sULiIREY7c-100" target="JGoEOjAj2-sULiIREY7c-104">
          <mxGeometry relative="1" as="geometry" />
        </mxCell>
        <mxCell id="JGoEOjAj2-sULiIREY7c-99" value="01" style="edgeLabel;html=1;align=center;verticalAlign=middle;resizable=0;points=[];" vertex="1" connectable="0" parent="JGoEOjAj2-sULiIREY7c-98">
          <mxGeometry x="-0.326" y="1" relative="1" as="geometry">
            <mxPoint x="21" y="-10" as="offset" />
          </mxGeometry>
        </mxCell>
        <mxCell id="JGoEOjAj2-sULiIREY7c-100" value="&lt;font style=&quot;font-size: 11px&quot;&gt;Transeunte se aproxima&lt;/font&gt;" style="rounded=1;whiteSpace=wrap;html=1;arcSize=50;" vertex="1" parent="JGoEOjAj2-sULiIREY7c-97">
          <mxGeometry x="35" y="370" width="90" height="40" as="geometry" />
        </mxCell>
        <mxCell id="JGoEOjAj2-sULiIREY7c-101" value="&lt;font style=&quot;font-size: 11px&quot;&gt;Sensor detecta o indivíduo diante da porta&lt;/font&gt;" style="rounded=0;whiteSpace=wrap;html=1;" vertex="1" parent="JGoEOjAj2-sULiIREY7c-97">
          <mxGeometry x="32.5" y="120" width="95" height="56.5" as="geometry" />
        </mxCell>
        <mxCell id="JGoEOjAj2-sULiIREY7c-102" style="edgeStyle=orthogonalEdgeStyle;rounded=0;orthogonalLoop=1;jettySize=auto;html=1;exitX=0.5;exitY=0;exitDx=0;exitDy=0;entryX=0.5;entryY=1;entryDx=0;entryDy=0;" edge="1" parent="JGoEOjAj2-sULiIREY7c-97" source="JGoEOjAj2-sULiIREY7c-104" target="JGoEOjAj2-sULiIREY7c-101">
          <mxGeometry relative="1" as="geometry" />
        </mxCell>
        <mxCell id="JGoEOjAj2-sULiIREY7c-103" value="&lt;div&gt;02&lt;/div&gt;" style="edgeLabel;html=1;align=center;verticalAlign=middle;resizable=0;points=[];" vertex="1" connectable="0" parent="JGoEOjAj2-sULiIREY7c-102">
          <mxGeometry x="-0.1711" y="-1" relative="1" as="geometry">
            <mxPoint x="19" y="-2.66" as="offset" />
          </mxGeometry>
        </mxCell>
        <mxCell id="JGoEOjAj2-sULiIREY7c-104" value="&lt;font style=&quot;font-size: 11px&quot;&gt;Transeunte se posiciona na distância ideal de detecção&lt;/font&gt;" style="rounded=0;whiteSpace=wrap;html=1;" vertex="1" parent="JGoEOjAj2-sULiIREY7c-97">
          <mxGeometry x="35" y="240" width="90" height="70" as="geometry" />
        </mxCell>
        <mxCell id="JGoEOjAj2-sULiIREY7c-105" value="Interface de diagnóstico" style="rounded=0;whiteSpace=wrap;html=1;" vertex="1" parent="1">
          <mxGeometry x="1911" y="840" width="428" height="40" as="geometry" />
        </mxCell>
        <mxCell id="JGoEOjAj2-sULiIREY7c-106" style="edgeStyle=orthogonalEdgeStyle;rounded=0;orthogonalLoop=1;jettySize=auto;html=1;entryX=0.5;entryY=1;entryDx=0;entryDy=0;exitX=1;exitY=0.5;exitDx=0;exitDy=0;" edge="1" parent="1" source="JGoEOjAj2-sULiIREY7c-114" target="JGoEOjAj2-sULiIREY7c-95">
          <mxGeometry relative="1" as="geometry">
            <Array as="points">
              <mxPoint x="2096" y="593" />
            </Array>
          </mxGeometry>
        </mxCell>
        <mxCell id="JGoEOjAj2-sULiIREY7c-107" value="Não" style="edgeLabel;html=1;align=center;verticalAlign=middle;resizable=0;points=[];labelBorderColor=#000000;" vertex="1" connectable="0" parent="JGoEOjAj2-sULiIREY7c-106">
          <mxGeometry x="-0.758" relative="1" as="geometry">
            <mxPoint x="-25.03" y="-42.56999999999999" as="offset" />
          </mxGeometry>
        </mxCell>
        <mxCell id="JGoEOjAj2-sULiIREY7c-108" value="05a" style="edgeLabel;html=1;align=center;verticalAlign=middle;resizable=0;points=[];" vertex="1" connectable="0" parent="JGoEOjAj2-sULiIREY7c-106">
          <mxGeometry x="-0.9094" relative="1" as="geometry">
            <mxPoint x="25.34" y="-53.489999999999995" as="offset" />
          </mxGeometry>
        </mxCell>
        <mxCell id="JGoEOjAj2-sULiIREY7c-109" value="" style="swimlane;connectable=0;startSize=0;html=1;whiteSpace=wrap;collapsible=0;recursiveResize=0;expand=0;" vertex="1" parent="1">
          <mxGeometry x="1911" y="700" width="428" height="140" as="geometry" />
        </mxCell>
        <mxCell id="JGoEOjAj2-sULiIREY7c-110" style="edgeStyle=orthogonalEdgeStyle;rounded=0;orthogonalLoop=1;jettySize=auto;html=1;entryX=0.5;entryY=0;entryDx=0;entryDy=0;exitX=1;exitY=0.5;exitDx=0;exitDy=0;" edge="1" parent="1" source="JGoEOjAj2-sULiIREY7c-95" target="JGoEOjAj2-sULiIREY7c-113">
          <mxGeometry relative="1" as="geometry">
            <Array as="points">
              <mxPoint x="2190" y="320" />
            </Array>
          </mxGeometry>
        </mxCell>
        <mxCell id="JGoEOjAj2-sULiIREY7c-111" value="06" style="edgeLabel;html=1;align=center;verticalAlign=middle;resizable=0;points=[];" vertex="1" connectable="0" parent="JGoEOjAj2-sULiIREY7c-110">
          <mxGeometry x="-0.2444" y="1" relative="1" as="geometry">
            <mxPoint x="25.75" y="-5.959999999999999" as="offset" />
          </mxGeometry>
        </mxCell>
        <mxCell id="JGoEOjAj2-sULiIREY7c-112" value="Processamento e controle" style="swimlane;connectable=0;startSize=40;html=1;whiteSpace=wrap;collapsible=0;recursiveResize=0;expand=0;" vertex="1" parent="1">
          <mxGeometry x="1911" y="390" width="428" height="310" as="geometry" />
        </mxCell>
        <mxCell id="JGoEOjAj2-sULiIREY7c-113" value="&lt;div&gt;&lt;font style=&quot;font-size: 11px&quot;&gt;Checar se &lt;br&gt;&lt;/font&gt;&lt;/div&gt;&lt;div&gt;&lt;font style=&quot;font-size: 11px&quot;&gt;credenciais são &lt;br&gt;&lt;/font&gt;&lt;/div&gt;&lt;div&gt;&lt;font style=&quot;font-size: 11px&quot;&gt;válidas&lt;/font&gt;&lt;/div&gt;" style="rhombus;whiteSpace=wrap;html=1;" vertex="1" parent="JGoEOjAj2-sULiIREY7c-112">
          <mxGeometry x="210" y="79.25" width="137.5" height="107" as="geometry" />
        </mxCell>
        <mxCell id="JGoEOjAj2-sULiIREY7c-114" value="&lt;div&gt;&lt;font style=&quot;font-size: 11px&quot;&gt;Se a aproximação &lt;br&gt;&lt;/font&gt;&lt;/div&gt;&lt;div&gt;&lt;font style=&quot;font-size: 11px&quot;&gt;ocorrer em horário de funcionamento&lt;/font&gt;&lt;/div&gt;" style="rhombus;whiteSpace=wrap;html=1;" vertex="1" parent="JGoEOjAj2-sULiIREY7c-112">
          <mxGeometry x="26.25" y="150" width="137.5" height="107" as="geometry" />
        </mxCell>
        <mxCell id="JGoEOjAj2-sULiIREY7c-115" value="Não" style="edgeStyle=orthogonalEdgeStyle;rounded=0;orthogonalLoop=1;jettySize=auto;html=1;exitX=0.876;exitY=0.627;exitDx=0;exitDy=0;entryX=-0.003;entryY=0.582;entryDx=0;entryDy=0;entryPerimeter=0;labelBorderColor=#000000;exitPerimeter=0;" edge="1" parent="JGoEOjAj2-sULiIREY7c-112" source="JGoEOjAj2-sULiIREY7c-113">
          <mxGeometry x="-0.5214" y="-20" relative="1" as="geometry">
            <mxPoint x="330.45000000000005" y="150.00099999999995" as="sourcePoint" />
            <mxPoint x="460.5049999999999" y="270.65334" as="targetPoint" />
            <Array as="points">
              <mxPoint x="330" y="271" />
            </Array>
            <mxPoint as="offset" />
          </mxGeometry>
        </mxCell>
        <mxCell id="JGoEOjAj2-sULiIREY7c-116" value="07c" style="edgeLabel;html=1;align=center;verticalAlign=middle;resizable=0;points=[];" vertex="1" connectable="0" parent="JGoEOjAj2-sULiIREY7c-115">
          <mxGeometry x="0.297" y="1" relative="1" as="geometry">
            <mxPoint x="-24.84" y="-62.09" as="offset" />
          </mxGeometry>
        </mxCell>
        <mxCell id="JGoEOjAj2-sULiIREY7c-117" value="&lt;font style=&quot;font-size: 11px&quot;&gt;Sensor checa o horário de operação&lt;/font&gt;" style="rounded=0;whiteSpace=wrap;html=1;" vertex="1" parent="JGoEOjAj2-sULiIREY7c-112">
          <mxGeometry x="50" y="60" width="90" height="51.25" as="geometry" />
        </mxCell>
        <mxCell id="JGoEOjAj2-sULiIREY7c-118" style="edgeStyle=orthogonalEdgeStyle;rounded=0;orthogonalLoop=1;jettySize=auto;html=1;exitX=0.5;exitY=1;exitDx=0;exitDy=0;entryX=0.5;entryY=0;entryDx=0;entryDy=0;" edge="1" parent="JGoEOjAj2-sULiIREY7c-112" source="JGoEOjAj2-sULiIREY7c-117" target="JGoEOjAj2-sULiIREY7c-114">
          <mxGeometry relative="1" as="geometry">
            <mxPoint x="95" y="121.00000000000011" as="targetPoint" />
          </mxGeometry>
        </mxCell>
        <mxCell id="JGoEOjAj2-sULiIREY7c-119" value="04" style="edgeLabel;html=1;align=center;verticalAlign=middle;resizable=0;points=[];" vertex="1" connectable="0" parent="JGoEOjAj2-sULiIREY7c-118">
          <mxGeometry x="-0.5673" relative="1" as="geometry">
            <mxPoint x="25" y="12.56" as="offset" />
          </mxGeometry>
        </mxCell>
        <mxCell id="JGoEOjAj2-sULiIREY7c-120" style="edgeStyle=orthogonalEdgeStyle;rounded=0;orthogonalLoop=1;jettySize=auto;html=1;exitX=1;exitY=0.5;exitDx=0;exitDy=0;entryX=0.005;entryY=0.351;entryDx=0;entryDy=0;entryPerimeter=0;" edge="1" parent="1" source="JGoEOjAj2-sULiIREY7c-113" target="JGoEOjAj2-sULiIREY7c-91">
          <mxGeometry relative="1" as="geometry">
            <mxPoint x="2372" y="520" as="targetPoint" />
            <Array as="points">
              <mxPoint x="2372" y="523" />
            </Array>
          </mxGeometry>
        </mxCell>
        <mxCell id="JGoEOjAj2-sULiIREY7c-121" value="Sim" style="edgeLabel;html=1;align=center;verticalAlign=middle;resizable=0;points=[];labelBorderColor=#000000;" vertex="1" connectable="0" parent="JGoEOjAj2-sULiIREY7c-120">
          <mxGeometry x="-0.2309" y="1" relative="1" as="geometry">
            <mxPoint x="-2.23" y="18.04" as="offset" />
          </mxGeometry>
        </mxCell>
        <mxCell id="JGoEOjAj2-sULiIREY7c-139" value="07a" style="edgeLabel;html=1;align=center;verticalAlign=middle;resizable=0;points=[];" vertex="1" connectable="0" parent="JGoEOjAj2-sULiIREY7c-120">
          <mxGeometry x="-0.2262" relative="1" as="geometry">
            <mxPoint x="-2.47" y="-12.930000000000001" as="offset" />
          </mxGeometry>
        </mxCell>
        <mxCell id="JGoEOjAj2-sULiIREY7c-123" style="edgeStyle=orthogonalEdgeStyle;rounded=0;orthogonalLoop=1;jettySize=auto;html=1;exitX=0.115;exitY=0.615;exitDx=0;exitDy=0;exitPerimeter=0;" edge="1" parent="1" source="JGoEOjAj2-sULiIREY7c-114">
          <mxGeometry relative="1" as="geometry">
            <Array as="points">
              <mxPoint x="1953" y="774" />
              <mxPoint x="2001" y="774" />
            </Array>
            <mxPoint x="2001.0000000000005" y="774" as="targetPoint" />
          </mxGeometry>
        </mxCell>
        <mxCell id="JGoEOjAj2-sULiIREY7c-124" value="05b" style="edgeLabel;html=1;align=center;verticalAlign=middle;resizable=0;points=[];" vertex="1" connectable="0" parent="JGoEOjAj2-sULiIREY7c-123">
          <mxGeometry x="0.2016" relative="1" as="geometry">
            <mxPoint x="27.89" y="-70.56" as="offset" />
          </mxGeometry>
        </mxCell>
        <mxCell id="JGoEOjAj2-sULiIREY7c-125" style="edgeStyle=orthogonalEdgeStyle;rounded=0;orthogonalLoop=1;jettySize=auto;html=1;entryX=0;entryY=0.75;entryDx=0;entryDy=0;exitX=0.669;exitY=0.832;exitDx=0;exitDy=0;exitPerimeter=0;" edge="1" parent="1" source="JGoEOjAj2-sULiIREY7c-114" target="JGoEOjAj2-sULiIREY7c-91">
          <mxGeometry relative="1" as="geometry">
            <Array as="points">
              <mxPoint x="2281" y="629" />
              <mxPoint x="2281" y="560" />
            </Array>
            <mxPoint x="2011" y="600" as="sourcePoint" />
          </mxGeometry>
        </mxCell>
        <mxCell id="JGoEOjAj2-sULiIREY7c-126" value="Sim" style="edgeLabel;html=1;align=center;verticalAlign=middle;resizable=0;points=[];labelBorderColor=#000000;" vertex="1" connectable="0" parent="JGoEOjAj2-sULiIREY7c-125">
          <mxGeometry x="-0.9517" relative="1" as="geometry">
            <mxPoint x="92.00999999999999" y="20.479999999999997" as="offset" />
          </mxGeometry>
        </mxCell>
        <mxCell id="JGoEOjAj2-sULiIREY7c-127" value="05c" style="edgeLabel;html=1;align=center;verticalAlign=middle;resizable=0;points=[];" vertex="1" connectable="0" parent="JGoEOjAj2-sULiIREY7c-125">
          <mxGeometry x="-0.3422" relative="1" as="geometry">
            <mxPoint x="-33.69" y="-19.5" as="offset" />
          </mxGeometry>
        </mxCell>
        <mxCell id="JGoEOjAj2-sULiIREY7c-128" style="edgeStyle=orthogonalEdgeStyle;rounded=0;orthogonalLoop=1;jettySize=auto;html=1;entryX=0.5;entryY=1;entryDx=0;entryDy=0;" edge="1" parent="1" source="JGoEOjAj2-sULiIREY7c-91" target="JGoEOjAj2-sULiIREY7c-96">
          <mxGeometry relative="1" as="geometry" />
        </mxCell>
        <mxCell id="JGoEOjAj2-sULiIREY7c-129" value="08" style="edgeLabel;html=1;align=center;verticalAlign=middle;resizable=0;points=[];" vertex="1" connectable="0" parent="JGoEOjAj2-sULiIREY7c-128">
          <mxGeometry x="-0.2478" relative="1" as="geometry">
            <mxPoint x="32" y="21.86" as="offset" />
          </mxGeometry>
        </mxCell>
        <mxCell id="JGoEOjAj2-sULiIREY7c-130" style="edgeStyle=orthogonalEdgeStyle;rounded=0;orthogonalLoop=1;jettySize=auto;html=1;exitX=1;exitY=0.5;exitDx=0;exitDy=0;" edge="1" parent="1" source="JGoEOjAj2-sULiIREY7c-90">
          <mxGeometry relative="1" as="geometry">
            <mxPoint x="2371.0000000000005" y="773.5915492957747" as="targetPoint" />
            <Array as="points">
              <mxPoint x="2331" y="774" />
              <mxPoint x="2331" y="774" />
            </Array>
          </mxGeometry>
        </mxCell>
        <mxCell id="JGoEOjAj2-sULiIREY7c-131" value="&lt;div&gt;07b&lt;/div&gt;" style="edgeLabel;html=1;align=center;verticalAlign=middle;resizable=0;points=[];" vertex="1" connectable="0" parent="JGoEOjAj2-sULiIREY7c-130">
          <mxGeometry x="0.0008" y="-18" relative="1" as="geometry">
            <mxPoint x="-18" y="-31.6" as="offset" />
          </mxGeometry>
        </mxCell>
        <mxCell id="JGoEOjAj2-sULiIREY7c-132" value="&lt;div&gt;Sim&lt;/div&gt;" style="edgeLabel;html=1;align=center;verticalAlign=middle;resizable=0;points=[];labelBorderColor=#000000;" vertex="1" connectable="0" parent="JGoEOjAj2-sULiIREY7c-130">
          <mxGeometry x="0.0464" y="-1" relative="1" as="geometry">
            <mxPoint x="-22.93" y="15.41" as="offset" />
          </mxGeometry>
        </mxCell>
        <mxCell id="JGoEOjAj2-sULiIREY7c-133" style="edgeStyle=orthogonalEdgeStyle;rounded=0;orthogonalLoop=1;jettySize=auto;html=1;exitX=1;exitY=0;exitDx=0;exitDy=0;entryX=0.5;entryY=1;entryDx=0;entryDy=0;" edge="1" parent="1" source="JGoEOjAj2-sULiIREY7c-90" target="JGoEOjAj2-sULiIREY7c-113">
          <mxGeometry relative="1" as="geometry">
            <Array as="points">
              <mxPoint x="2190" y="747" />
              <mxPoint x="2190" y="576" />
            </Array>
          </mxGeometry>
        </mxCell>
        <mxCell id="JGoEOjAj2-sULiIREY7c-134" value="Não" style="edgeLabel;html=1;align=center;verticalAlign=middle;resizable=0;points=[];labelBorderColor=#000000;" vertex="1" connectable="0" parent="JGoEOjAj2-sULiIREY7c-133">
          <mxGeometry x="-0.5721" y="21" relative="1" as="geometry">
            <mxPoint x="22.91" y="-5.82" as="offset" />
          </mxGeometry>
        </mxCell>
        <mxCell id="JGoEOjAj2-sULiIREY7c-135" value="06b" style="edgeLabel;html=1;align=center;verticalAlign=middle;resizable=0;points=[];" vertex="1" connectable="0" parent="JGoEOjAj2-sULiIREY7c-133">
          <mxGeometry x="-0.5611" y="24" relative="1" as="geometry">
            <mxPoint x="-18.52" y="-2.81" as="offset" />
          </mxGeometry>
        </mxCell>
        <mxCell id="JGoEOjAj2-sULiIREY7c-136" value="Interface de saída" style="swimlane;connectable=0;startSize=40;html=1;whiteSpace=wrap;collapsible=0;recursiveResize=0;expand=0;" vertex="1" parent="1">
          <mxGeometry x="2339" y="390" width="160" height="490" as="geometry" />
        </mxCell>
        <mxCell id="JGoEOjAj2-sULiIREY7c-137" style="edgeStyle=orthogonalEdgeStyle;rounded=0;orthogonalLoop=1;jettySize=auto;html=1;exitX=0.5;exitY=0;exitDx=0;exitDy=0;entryX=0;entryY=0.5;entryDx=0;entryDy=0;" edge="1" parent="1" source="JGoEOjAj2-sULiIREY7c-101" target="JGoEOjAj2-sULiIREY7c-117">
          <mxGeometry relative="1" as="geometry" />
        </mxCell>
        <mxCell id="JGoEOjAj2-sULiIREY7c-138" value="&lt;div&gt;03&lt;/div&gt;" style="edgeLabel;html=1;align=center;verticalAlign=middle;resizable=0;points=[];" vertex="1" connectable="0" parent="JGoEOjAj2-sULiIREY7c-137">
          <mxGeometry x="-0.6647" y="-1" relative="1" as="geometry">
            <mxPoint x="19" y="10.27" as="offset" />
          </mxGeometry>
        </mxCell>
      </root>
    </mxGraphModel>
  </diagram>
  <diagram id="gGpDCwHFUMZcX18eCRBz" name="Page-2">
    <mxGraphModel dx="595" dy="797" grid="1" gridSize="10" guides="1" tooltips="1" connect="1" arrows="1" fold="1" page="1" pageScale="1" pageWidth="827" pageHeight="1169" math="0" shadow="0">
      <root>
        <mxCell id="P6EH_GBc_piib1WFwspZ-0" />
        <mxCell id="P6EH_GBc_piib1WFwspZ-1" parent="P6EH_GBc_piib1WFwspZ-0" />
        <mxCell id="P6EH_GBc_piib1WFwspZ-6" value="Interface com operador" style="swimlane;connectable=0;startSize=40;html=1;whiteSpace=wrap;collapsible=0;recursiveResize=0;expand=0;" vertex="1" parent="P6EH_GBc_piib1WFwspZ-1">
          <mxGeometry x="867" y="255" width="748" height="170" as="geometry" />
        </mxCell>
        <mxCell id="P6EH_GBc_piib1WFwspZ-9" value="Interface de entrada" style="swimlane;connectable=0;startSize=40;html=1;whiteSpace=wrap;collapsible=0;recursiveResize=0;expand=0;" vertex="1" parent="P6EH_GBc_piib1WFwspZ-1">
          <mxGeometry x="867" y="425" width="160" height="325" as="geometry" />
        </mxCell>
        <mxCell id="P6EH_GBc_piib1WFwspZ-17" value="Interface de diagnóstico" style="rounded=0;whiteSpace=wrap;html=1;" vertex="1" parent="P6EH_GBc_piib1WFwspZ-1">
          <mxGeometry x="1027" y="710" width="428" height="40" as="geometry" />
        </mxCell>
        <mxCell id="P6EH_GBc_piib1WFwspZ-21" value="" style="swimlane;connectable=0;startSize=0;html=1;whiteSpace=wrap;collapsible=0;recursiveResize=0;expand=0;" vertex="1" parent="P6EH_GBc_piib1WFwspZ-1">
          <mxGeometry x="1027" y="610" width="428" height="100" as="geometry" />
        </mxCell>
        <mxCell id="lqvRrt9pNwsdP-tVq-Va-10" style="edgeStyle=orthogonalEdgeStyle;rounded=0;orthogonalLoop=1;jettySize=auto;html=1;exitX=1;exitY=0.5;exitDx=0;exitDy=0;entryX=0;entryY=0.5;entryDx=0;entryDy=0;" edge="1" parent="P6EH_GBc_piib1WFwspZ-1" source="Jl51rHEwBhBtDl0W0kBK-1" target="lqvRrt9pNwsdP-tVq-Va-0">
          <mxGeometry relative="1" as="geometry">
            <mxPoint x="1160" y="520.344827586207" as="targetPoint" />
          </mxGeometry>
        </mxCell>
        <mxCell id="Jl51rHEwBhBtDl0W0kBK-1" value="Transeunte" style="rounded=0;whiteSpace=wrap;html=1;shadow=1;" vertex="1" parent="P6EH_GBc_piib1WFwspZ-1">
          <mxGeometry x="905.5" y="490" width="83" height="60" as="geometry" />
        </mxCell>
        <mxCell id="lqvRrt9pNwsdP-tVq-Va-9" style="edgeStyle=orthogonalEdgeStyle;rounded=0;orthogonalLoop=1;jettySize=auto;html=1;exitX=1;exitY=0.5;exitDx=0;exitDy=0;entryX=0;entryY=0.5;entryDx=0;entryDy=0;" edge="1" parent="P6EH_GBc_piib1WFwspZ-1" source="Jl51rHEwBhBtDl0W0kBK-2" target="lqvRrt9pNwsdP-tVq-Va-0">
          <mxGeometry relative="1" as="geometry">
            <mxPoint x="1160" y="520" as="targetPoint" />
            <Array as="points">
              <mxPoint x="1010" y="680" />
              <mxPoint x="1010" y="520" />
            </Array>
          </mxGeometry>
        </mxCell>
        <mxCell id="Jl51rHEwBhBtDl0W0kBK-2" value="Sensor" style="rounded=0;whiteSpace=wrap;html=1;shadow=1;" vertex="1" parent="P6EH_GBc_piib1WFwspZ-1">
          <mxGeometry x="905.5" y="650" width="83" height="60" as="geometry" />
        </mxCell>
        <mxCell id="lqvRrt9pNwsdP-tVq-Va-12" style="edgeStyle=orthogonalEdgeStyle;rounded=0;orthogonalLoop=1;jettySize=auto;html=1;exitX=0.25;exitY=1;exitDx=0;exitDy=0;entryX=0.182;entryY=-0.008;entryDx=0;entryDy=0;entryPerimeter=0;" edge="1" parent="P6EH_GBc_piib1WFwspZ-1" source="lqvRrt9pNwsdP-tVq-Va-0" target="lqvRrt9pNwsdP-tVq-Va-2">
          <mxGeometry relative="1" as="geometry" />
        </mxCell>
        <mxCell id="lqvRrt9pNwsdP-tVq-Va-13" style="edgeStyle=orthogonalEdgeStyle;rounded=0;orthogonalLoop=1;jettySize=auto;html=1;entryX=0.75;entryY=1;entryDx=0;entryDy=0;exitX=0.811;exitY=0.004;exitDx=0;exitDy=0;exitPerimeter=0;" edge="1" parent="P6EH_GBc_piib1WFwspZ-1" source="lqvRrt9pNwsdP-tVq-Va-2" target="lqvRrt9pNwsdP-tVq-Va-0">
          <mxGeometry relative="1" as="geometry">
            <mxPoint x="1278" y="620" as="sourcePoint" />
            <Array as="points">
              <mxPoint x="1278" y="600" />
            </Array>
          </mxGeometry>
        </mxCell>
        <mxCell id="lqvRrt9pNwsdP-tVq-Va-14" style="edgeStyle=orthogonalEdgeStyle;rounded=0;orthogonalLoop=1;jettySize=auto;html=1;exitX=0.25;exitY=0;exitDx=0;exitDy=0;entryX=0.5;entryY=1;entryDx=0;entryDy=0;" edge="1" parent="P6EH_GBc_piib1WFwspZ-1" source="lqvRrt9pNwsdP-tVq-Va-0" target="lqvRrt9pNwsdP-tVq-Va-7">
          <mxGeometry relative="1" as="geometry">
            <Array as="points">
              <mxPoint x="1203" y="450" />
              <mxPoint x="1121" y="450" />
            </Array>
          </mxGeometry>
        </mxCell>
        <mxCell id="lqvRrt9pNwsdP-tVq-Va-16" style="edgeStyle=orthogonalEdgeStyle;rounded=0;orthogonalLoop=1;jettySize=auto;html=1;exitX=1;exitY=0.5;exitDx=0;exitDy=0;entryX=0;entryY=0.5;entryDx=0;entryDy=0;" edge="1" parent="P6EH_GBc_piib1WFwspZ-1" source="lqvRrt9pNwsdP-tVq-Va-0" target="lqvRrt9pNwsdP-tVq-Va-5">
          <mxGeometry relative="1" as="geometry" />
        </mxCell>
        <mxCell id="6QUPZqvnCom-4IuBTUoO-1" style="edgeStyle=orthogonalEdgeStyle;rounded=0;orthogonalLoop=1;jettySize=auto;html=1;exitX=0.93;exitY=0.999;exitDx=0;exitDy=0;entryX=0.5;entryY=0;entryDx=0;entryDy=0;exitPerimeter=0;" edge="1" parent="P6EH_GBc_piib1WFwspZ-1" source="lqvRrt9pNwsdP-tVq-Va-0" target="lqvRrt9pNwsdP-tVq-Va-4">
          <mxGeometry relative="1" as="geometry">
            <Array as="points">
              <mxPoint x="1316" y="560" />
              <mxPoint x="1535" y="560" />
            </Array>
          </mxGeometry>
        </mxCell>
        <mxCell id="lqvRrt9pNwsdP-tVq-Va-0" value="&lt;div&gt;Sistema de checagem &lt;br&gt;&lt;/div&gt;&lt;div&gt;de permissões e encaminhamento de operações&lt;/div&gt;" style="rounded=1;whiteSpace=wrap;html=1;shadow=1;" vertex="1" parent="P6EH_GBc_piib1WFwspZ-1">
          <mxGeometry x="1165" y="480" width="151" height="80" as="geometry" />
        </mxCell>
        <mxCell id="6QUPZqvnCom-4IuBTUoO-0" style="edgeStyle=orthogonalEdgeStyle;rounded=0;orthogonalLoop=1;jettySize=auto;html=1;exitX=1;exitY=0.5;exitDx=0;exitDy=0;entryX=0;entryY=0.5;entryDx=0;entryDy=0;" edge="1" parent="P6EH_GBc_piib1WFwspZ-1" source="lqvRrt9pNwsdP-tVq-Va-2" target="lqvRrt9pNwsdP-tVq-Va-6">
          <mxGeometry relative="1" as="geometry">
            <Array as="points">
              <mxPoint x="1380" y="660" />
              <mxPoint x="1380" y="700" />
            </Array>
          </mxGeometry>
        </mxCell>
        <mxCell id="lqvRrt9pNwsdP-tVq-Va-2" value="Checagem de ameaças" style="rounded=0;whiteSpace=wrap;html=1;shadow=1;" vertex="1" parent="P6EH_GBc_piib1WFwspZ-1">
          <mxGeometry x="1181" y="630" width="120" height="60" as="geometry" />
        </mxCell>
        <mxCell id="lqvRrt9pNwsdP-tVq-Va-4" value="Manter fechado e reportar" style="rounded=0;whiteSpace=wrap;html=1;shadow=1;" vertex="1" parent="P6EH_GBc_piib1WFwspZ-1">
          <mxGeometry x="1475" y="584.5" width="120" height="60" as="geometry" />
        </mxCell>
        <mxCell id="6QUPZqvnCom-4IuBTUoO-2" style="edgeStyle=orthogonalEdgeStyle;rounded=0;orthogonalLoop=1;jettySize=auto;html=1;exitX=0.5;exitY=0;exitDx=0;exitDy=0;entryX=1;entryY=0.5;entryDx=0;entryDy=0;" edge="1" parent="P6EH_GBc_piib1WFwspZ-1" source="lqvRrt9pNwsdP-tVq-Va-5" target="lqvRrt9pNwsdP-tVq-Va-8">
          <mxGeometry relative="1" as="geometry" />
        </mxCell>
        <mxCell id="lqvRrt9pNwsdP-tVq-Va-5" value="Permitir a entrada" style="rounded=0;whiteSpace=wrap;html=1;shadow=1;" vertex="1" parent="P6EH_GBc_piib1WFwspZ-1">
          <mxGeometry x="1475" y="490" width="120" height="60" as="geometry" />
        </mxCell>
        <mxCell id="lqvRrt9pNwsdP-tVq-Va-6" value="Manter fechado e contatar a segurança" style="rounded=0;whiteSpace=wrap;html=1;shadow=1;" vertex="1" parent="P6EH_GBc_piib1WFwspZ-1">
          <mxGeometry x="1475" y="670" width="120" height="60" as="geometry" />
        </mxCell>
        <mxCell id="lqvRrt9pNwsdP-tVq-Va-15" style="edgeStyle=orthogonalEdgeStyle;rounded=0;orthogonalLoop=1;jettySize=auto;html=1;exitX=1;exitY=0.5;exitDx=0;exitDy=0;entryX=0.5;entryY=0;entryDx=0;entryDy=0;" edge="1" parent="P6EH_GBc_piib1WFwspZ-1" source="lqvRrt9pNwsdP-tVq-Va-7" target="lqvRrt9pNwsdP-tVq-Va-0">
          <mxGeometry relative="1" as="geometry" />
        </mxCell>
        <mxCell id="lqvRrt9pNwsdP-tVq-Va-7" value="Indivíduo fornece documentação de identificação" style="rounded=0;whiteSpace=wrap;html=1;shadow=1;" vertex="1" parent="P6EH_GBc_piib1WFwspZ-1">
          <mxGeometry x="1061" y="330" width="120" height="60" as="geometry" />
        </mxCell>
        <mxCell id="lqvRrt9pNwsdP-tVq-Va-8" value="&lt;div&gt;Indivíduo atravessa&lt;/div&gt;&lt;div&gt; a portaria&lt;/div&gt;" style="rounded=0;whiteSpace=wrap;html=1;shadow=1;" vertex="1" parent="P6EH_GBc_piib1WFwspZ-1">
          <mxGeometry x="1301" y="330" width="120" height="60" as="geometry" />
        </mxCell>
        <mxCell id="P6EH_GBc_piib1WFwspZ-48" value="Interface de saída" style="swimlane;connectable=0;startSize=40;html=1;whiteSpace=wrap;collapsible=0;recursiveResize=0;expand=0;" vertex="1" parent="P6EH_GBc_piib1WFwspZ-1">
          <mxGeometry x="1455" y="425" width="160" height="325" as="geometry" />
        </mxCell>
      </root>
    </mxGraphModel>
  </diagram>
</mxfile>
